<svg width="24" height="25" viewBox="0 0 24 25" fill="none" xmlns="http://www.w3.org/2000/svg">
<path d="M15 21.5V13.5C15 13.2348 14.8946 12.9804 14.7071 12.7929C14.5196 12.6054 14.2652 12.5 14 12.5H10C9.73478 12.5 9.48043 12.6054 9.29289 12.7929C9.10536 12.9804 9 13.2348 9 13.5V21.5" stroke="#FDFDFD" stroke-width="2" stroke-linecap="round" stroke-linejoin="round"/>
<path d="M3 10.5C2.99993 10.2091 3.06333 9.92161 3.18579 9.65771C3.30824 9.3938 3.4868 9.15979 3.709 8.97199L10.709 2.97199C11.07 2.6669 11.5274 2.49951 12 2.49951C12.4726 2.49951 12.93 2.6669 13.291 2.97199L20.291 8.97199C20.5132 9.15979 20.6918 9.3938 20.8142 9.65771C20.9367 9.92161 21.0001 10.2091 21 10.5V19.5C21 20.0304 20.7893 20.5391 20.4142 20.9142C20.0391 21.2893 19.5304 21.5 19 21.5H5C4.46957 21.5 3.96086 21.2893 3.58579 20.9142C3.21071 20.5391 3 20.0304 3 19.5V10.5Z" stroke="#FDFDFD" stroke-width="2" stroke-linecap="round" stroke-linejoin="round"/>
</svg>
