<svg width="158" height="64" viewBox="0 0 158 64" fill="none" xmlns="http://www.w3.org/2000/svg">
<path d="M36 52V16C36 14.9391 36.4214 13.9217 37.1716 13.1716C37.9217 12.4214 38.9391 12 40 12H56C57.0609 12 58.0783 12.4214 58.8284 13.1716C59.5786 13.9217 60 14.9391 60 16V52H36Z" stroke="#FDFDFD" stroke-width="4" stroke-linecap="round" stroke-linejoin="round"/>
<path d="M36 32H32C30.9391 32 29.9217 32.4214 29.1716 33.1716C28.4214 33.9217 28 34.9391 28 36V48C28 49.0609 28.4214 50.0783 29.1716 50.8284C29.9217 51.5786 30.9391 52 32 52H36" stroke="#FDFDFD" stroke-width="4" stroke-linecap="round" stroke-linejoin="round"/>
<path d="M60 26H64C65.0609 26 66.0783 26.4214 66.8284 27.1716C67.5786 27.9217 68 28.9391 68 30V48C68 49.0609 67.5786 50.0783 66.8284 50.8284C66.0783 51.5786 65.0609 52 64 52H60" stroke="#FDFDFD" stroke-width="4" stroke-linecap="round" stroke-linejoin="round"/>
<path d="M44 20H52" stroke="#FDFDFD" stroke-width="4" stroke-linecap="round" stroke-linejoin="round"/>
<path d="M44 28H52" stroke="#FDFDFD" stroke-width="4" stroke-linecap="round" stroke-linejoin="round"/>
<path d="M44 36H52" stroke="#FDFDFD" stroke-width="4" stroke-linecap="round" stroke-linejoin="round"/>
<path d="M44 44H52" stroke="#FDFDFD" stroke-width="4" stroke-linecap="round" stroke-linejoin="round"/>
<path d="M90.8008 37.2344V22H94.1992V40H91.1406L90.8008 37.2344ZM82.7852 33.8125V33.5664C82.7852 32.5977 82.8945 31.7188 83.1133 30.9297C83.332 30.1328 83.6523 29.4492 84.0742 28.8789C84.4961 28.3086 85.0156 27.8672 85.6328 27.5547C86.25 27.2422 86.9531 27.0859 87.7422 27.0859C88.4844 27.0859 89.1328 27.2422 89.6875 27.5547C90.25 27.8672 90.7266 28.3125 91.1172 28.8906C91.5156 29.4609 91.8359 30.1367 92.0781 30.918C92.3203 31.6914 92.4961 32.5391 92.6055 33.4609V34C92.4961 34.8828 92.3203 35.7031 92.0781 36.4609C91.8359 37.2188 91.5156 37.8828 91.1172 38.4531C90.7266 39.0156 90.25 39.4531 89.6875 39.7656C89.125 40.0781 88.4688 40.2344 87.7188 40.2344C86.9297 40.2344 86.2266 40.0742 85.6094 39.7539C85 39.4336 84.4844 38.9844 84.0625 38.4062C83.6484 37.8281 83.332 37.1484 83.1133 36.3672C82.8945 35.5859 82.7852 34.7344 82.7852 33.8125ZM86.1602 33.5664V33.8125C86.1602 34.3359 86.1992 34.8242 86.2773 35.2773C86.3633 35.7305 86.5 36.1328 86.6875 36.4844C86.8828 36.8281 87.1328 37.0977 87.4375 37.293C87.75 37.4805 88.1289 37.5742 88.5742 37.5742C89.1523 37.5742 89.6289 37.4453 90.0039 37.1875C90.3789 36.9219 90.6641 36.5586 90.8594 36.0977C91.0625 35.6367 91.1797 35.1055 91.2109 34.5039V32.9688C91.1875 32.4766 91.1172 32.0352 91 31.6445C90.8906 31.2461 90.7266 30.9062 90.5078 30.625C90.2969 30.3438 90.0312 30.125 89.7109 29.9688C89.3984 29.8125 89.0273 29.7344 88.5977 29.7344C88.1602 29.7344 87.7852 29.8359 87.4727 30.0391C87.1602 30.2344 86.9062 30.5039 86.7109 30.8477C86.5234 31.1914 86.3828 31.5977 86.2891 32.0664C86.2031 32.5273 86.1602 33.0273 86.1602 33.5664ZM111.062 31.0703V31.8789C111.062 33.1758 110.887 34.3398 110.535 35.3711C110.184 36.4023 109.688 37.2812 109.047 38.0078C108.406 38.7266 107.641 39.2773 106.75 39.6602C105.867 40.043 104.887 40.2344 103.809 40.2344C102.738 40.2344 101.758 40.043 100.867 39.6602C99.9844 39.2773 99.2188 38.7266 98.5703 38.0078C97.9219 37.2812 97.418 36.4023 97.0586 35.3711C96.707 34.3398 96.5312 33.1758 96.5312 31.8789V31.0703C96.5312 29.7656 96.707 28.6016 97.0586 27.5781C97.4102 26.5469 97.9062 25.668 98.5469 24.9414C99.1953 24.2148 99.9609 23.6602 100.844 23.2773C101.734 22.8945 102.715 22.7031 103.785 22.7031C104.863 22.7031 105.844 22.8945 106.727 23.2773C107.617 23.6602 108.383 24.2148 109.023 24.9414C109.672 25.668 110.172 26.5469 110.523 27.5781C110.883 28.6016 111.062 29.7656 111.062 31.0703ZM107.512 31.8789V31.0469C107.512 30.1406 107.43 29.3438 107.266 28.6562C107.102 27.9688 106.859 27.3906 106.539 26.9219C106.219 26.4531 105.828 26.1016 105.367 25.8672C104.906 25.625 104.379 25.5039 103.785 25.5039C103.191 25.5039 102.664 25.625 102.203 25.8672C101.75 26.1016 101.363 26.4531 101.043 26.9219C100.73 27.3906 100.492 27.9688 100.328 28.6562C100.164 29.3438 100.082 30.1406 100.082 31.0469V31.8789C100.082 32.7773 100.164 33.5742 100.328 34.2695C100.492 34.957 100.734 35.5391 101.055 36.0156C101.375 36.4844 101.766 36.8398 102.227 37.082C102.688 37.3242 103.215 37.4453 103.809 37.4453C104.402 37.4453 104.93 37.3242 105.391 37.082C105.852 36.8398 106.238 36.4844 106.551 36.0156C106.863 35.5391 107.102 34.957 107.266 34.2695C107.43 33.5742 107.512 32.7773 107.512 31.8789ZM122.477 35.5352C122.477 35.2305 122.43 34.957 122.336 34.7148C122.25 34.4648 122.086 34.2383 121.844 34.0352C121.602 33.8242 121.262 33.6172 120.824 33.4141C120.387 33.2109 119.82 33 119.125 32.7812C118.352 32.5312 117.617 32.25 116.922 31.9375C116.234 31.625 115.625 31.2617 115.094 30.8477C114.57 30.4258 114.156 29.9375 113.852 29.3828C113.555 28.8281 113.406 28.1836 113.406 27.4492C113.406 26.7383 113.562 26.0938 113.875 25.5156C114.188 24.9297 114.625 24.4297 115.188 24.0156C115.75 23.5938 116.414 23.2695 117.18 23.043C117.953 22.8164 118.801 22.7031 119.723 22.7031C120.98 22.7031 122.078 22.9297 123.016 23.3828C123.953 23.8359 124.68 24.457 125.195 25.2461C125.719 26.0352 125.98 26.9375 125.98 27.9531H122.488C122.488 27.4531 122.383 27.0156 122.172 26.6406C121.969 26.2578 121.656 25.957 121.234 25.7383C120.82 25.5195 120.297 25.4102 119.664 25.4102C119.055 25.4102 118.547 25.5039 118.141 25.6914C117.734 25.8711 117.43 26.1172 117.227 26.4297C117.023 26.7344 116.922 27.0781 116.922 27.4609C116.922 27.75 116.992 28.0117 117.133 28.2461C117.281 28.4805 117.5 28.6992 117.789 28.9023C118.078 29.1055 118.434 29.2969 118.855 29.4766C119.277 29.6562 119.766 29.832 120.32 30.0039C121.25 30.2852 122.066 30.6016 122.77 30.9531C123.48 31.3047 124.074 31.6992 124.551 32.1367C125.027 32.5742 125.387 33.0703 125.629 33.625C125.871 34.1797 125.992 34.8086 125.992 35.5117C125.992 36.2539 125.848 36.918 125.559 37.5039C125.27 38.0898 124.852 38.5859 124.305 38.9922C123.758 39.3984 123.105 39.707 122.348 39.918C121.59 40.1289 120.742 40.2344 119.805 40.2344C118.961 40.2344 118.129 40.125 117.309 39.9062C116.488 39.6797 115.742 39.3398 115.07 38.8867C114.406 38.4336 113.875 37.8555 113.477 37.1523C113.078 36.4492 112.879 35.6172 112.879 34.6562H116.406C116.406 35.1875 116.488 35.6367 116.652 36.0039C116.816 36.3711 117.047 36.668 117.344 36.8945C117.648 37.1211 118.008 37.2852 118.422 37.3867C118.844 37.4883 119.305 37.5391 119.805 37.5391C120.414 37.5391 120.914 37.4531 121.305 37.2812C121.703 37.1094 121.996 36.8711 122.184 36.5664C122.379 36.2617 122.477 35.918 122.477 35.5352ZM131.734 27.3203V40H128.348V27.3203H131.734ZM128.137 24.0156C128.137 23.5234 128.309 23.1172 128.652 22.7969C128.996 22.4766 129.457 22.3164 130.035 22.3164C130.605 22.3164 131.062 22.4766 131.406 22.7969C131.758 23.1172 131.934 23.5234 131.934 24.0156C131.934 24.5078 131.758 24.9141 131.406 25.2344C131.062 25.5547 130.605 25.7148 130.035 25.7148C129.457 25.7148 128.996 25.5547 128.652 25.2344C128.309 24.9141 128.137 24.5078 128.137 24.0156Z" fill="#FDFDFD"/>
</svg>
